<svg width="9635" height="3355" viewBox="0 0 9635 3355" fill="none" xmlns="http://www.w3.org/2000/svg">
<rect x="2652.45" y="2443.45" width="4329.61" height="907.564" rx="184.584" stroke="white" stroke-width="6.89448"/>
<path d="M3005.75 3122.23V2673.08H3170.58C3223.56 2673.08 3261.03 2686.43 3283.01 2713.11C3297.92 2730.77 3305.38 2754.71 3305.38 2784.93C3305.38 2812.4 3298.71 2835.75 3285.36 2854.98C3272.02 2874.21 3254.75 2885 3233.56 2887.36C3262.6 2889.71 3285.56 2900.89 3302.44 2920.91C3319.31 2940.53 3327.75 2966.23 3327.75 2998.02C3327.75 3035.3 3315.98 3064.74 3292.43 3086.32C3278.3 3098.88 3261.23 3108.1 3241.22 3113.99C3221.2 3119.48 3200.01 3122.23 3177.64 3122.23H3005.75ZM3176.46 2873.23C3203.54 2873.23 3224.93 2865.97 3240.63 2851.45C3256.72 2836.53 3264.76 2816.52 3264.76 2791.4C3264.76 2766.29 3257.31 2746.86 3242.39 2733.13C3225.13 2717.43 3198.44 2709.58 3162.34 2709.58H3046.37V2873.23H3176.46ZM3173.52 3085.73C3214.33 3085.73 3244.16 3076.71 3263 3058.65C3279.09 3043.35 3287.13 3022.35 3287.13 2995.67C3287.13 2962.7 3277.12 2940.14 3257.11 2927.97C3237.49 2915.81 3214.92 2909.72 3189.41 2909.72H3046.37V3085.73H3173.52ZM3495.96 3128.12C3463.39 3128.12 3436.9 3120.07 3416.49 3103.98C3396.09 3087.89 3385.88 3065.33 3385.88 3036.28C3385.88 3007.64 3397.46 2985.07 3420.61 2968.59C3430.82 2961.53 3442 2956.03 3454.17 2952.11C3466.72 2947.79 3480.66 2944.06 3495.96 2940.92L3611.34 2917.97C3610.16 2888.14 3602.9 2865.77 3589.56 2850.86C3575.43 2835.16 3553.45 2827.31 3523.63 2827.31C3501.65 2827.31 3482.42 2833.4 3465.94 2845.56C3449.85 2857.73 3439.84 2873.62 3435.92 2893.24H3397.66C3402.36 2862.24 3416.49 2837.91 3440.04 2820.25C3463.98 2802.2 3492.04 2793.17 3524.22 2793.17C3564.64 2793.17 3595.44 2804.35 3616.64 2826.72C3638.61 2849.88 3649.6 2884.02 3649.6 2929.15V3122.23H3611.34V3061.6C3600.74 3081.61 3585.83 3097.31 3566.6 3108.69C3545.02 3121.64 3521.47 3128.12 3495.96 3128.12ZM3493.02 3093.97C3512.64 3093.97 3531.08 3089.66 3548.35 3081.02C3571.11 3070.03 3587.2 3053.55 3596.62 3031.58C3606.43 3009.21 3611.34 2982.13 3611.34 2950.34L3496.55 2974.48C3471.43 2979.97 3453.38 2987.23 3442.39 2996.26C3430.23 3006.46 3424.15 3019.8 3424.15 3036.28C3424.15 3054.34 3430.62 3068.46 3443.57 3078.67C3456.52 3088.87 3473 3093.97 3493.02 3093.97ZM3877.73 2793.17V2830.84H3863.02C3832.01 2830.84 3809.06 2840.26 3794.14 2859.1C3784.72 2870.87 3777.86 2885.2 3773.54 2902.07C3769.62 2918.95 3767.65 2939.75 3767.65 2964.47V3122.23H3729.39V2799.06H3767.65V2847.33C3788.84 2811.22 3822.01 2793.17 3867.14 2793.17H3877.73ZM4086.54 3128.12C4063 3128.12 4041.41 3122.42 4021.79 3111.04C4002.56 3099.66 3985.69 3083.38 3971.17 3062.19V3122.23H3932.9V2673.08H3971.17V2859.1C3985.69 2837.52 4002.76 2821.23 4022.38 2810.24C4042 2798.86 4063.39 2793.17 4086.54 2793.17C4114.41 2793.17 4138.93 2800.43 4160.13 2814.95C4181.71 2829.08 4198.39 2848.9 4210.16 2874.4C4221.93 2899.52 4227.82 2928.36 4227.82 2960.94C4227.82 2993.12 4221.93 3021.96 4210.16 3047.47C4198.39 3072.59 4181.71 3092.4 4160.13 3106.92C4138.54 3121.05 4114.01 3128.12 4086.54 3128.12ZM4083.01 3093.97C4104.6 3093.97 4123.43 3088.28 4139.52 3076.9C4155.61 3065.13 4167.97 3049.24 4176.61 3029.22C4185.24 3008.81 4189.56 2986.05 4189.56 2960.94C4189.56 2935.43 4185.24 2912.67 4176.61 2892.65C4167.97 2872.25 4155.61 2856.35 4139.52 2844.97C4123.43 2833.2 4104.6 2827.31 4083.01 2827.31C4061.43 2827.31 4042 2833.2 4024.73 2844.97C4007.86 2856.35 3994.52 2872.25 3984.71 2892.65C3974.89 2913.06 3969.99 2935.82 3969.99 2960.94C3969.99 2986.05 3974.89 3008.81 3984.71 3029.22C3994.52 3049.24 4007.86 3065.13 4024.73 3076.9C4042 3088.28 4061.43 3093.97 4083.01 3093.97ZM4439.76 3128.12C4410.33 3128.12 4383.84 3120.85 4360.3 3106.33C4336.75 3091.81 4318.3 3071.8 4304.96 3046.29C4292.01 3020.78 4285.54 2992.33 4285.54 2960.94C4285.54 2930.72 4291.82 2902.86 4304.37 2877.35C4316.93 2851.84 4334.79 2831.43 4357.94 2816.13C4381.49 2800.82 4408.57 2793.17 4439.18 2793.17C4468.22 2793.17 4493.72 2799.84 4515.7 2813.18C4538.07 2826.13 4555.73 2844.19 4568.68 2867.34C4581.63 2890.49 4589.48 2917.18 4592.23 2947.4C4592.62 2951.71 4592.81 2958.39 4592.81 2967.41H4323.21C4324.39 2982.72 4327.53 2997.63 4332.63 3012.15C4341.65 3037.66 4355.59 3057.67 4374.42 3072.19C4393.26 3086.71 4415.04 3093.97 4439.76 3093.97C4465.27 3093.97 4487.25 3087.11 4505.69 3073.37C4524.14 3059.63 4537.28 3041.98 4545.13 3020.39H4585.75C4575.94 3052.18 4558.48 3078.08 4533.36 3098.09C4508.24 3118.11 4477.05 3128.12 4439.76 3128.12ZM4555.73 2936.21C4552.98 2919.73 4549.45 2906.39 4545.13 2896.18C4535.71 2874.6 4521.59 2857.73 4502.75 2845.56C4484.31 2833.4 4463.31 2827.31 4439.76 2827.31C4416.22 2827.31 4395.42 2833.2 4377.37 2844.97C4359.71 2856.35 4346.36 2872.64 4337.34 2893.83C4331.45 2906.39 4327.53 2920.52 4325.56 2936.21H4555.73ZM4701.24 3122.23H4662.97V2799.06H4701.24V3122.23ZM4682.4 2724.3C4674.55 2724.3 4667.68 2721.55 4661.8 2716.06C4656.3 2710.17 4653.56 2703.3 4653.56 2695.45C4653.56 2687.6 4656.3 2680.93 4661.8 2675.44C4667.68 2669.95 4674.55 2667.2 4682.4 2667.2C4690.25 2667.2 4696.92 2669.95 4702.41 2675.44C4708.3 2680.93 4711.24 2687.6 4711.24 2695.45C4711.24 2703.3 4708.3 2710.17 4702.41 2716.06C4696.92 2721.55 4690.25 2724.3 4682.4 2724.3ZM4933.75 2793.17V2830.84H4919.03C4888.03 2830.84 4865.07 2840.26 4850.16 2859.1C4840.74 2870.87 4833.87 2885.2 4829.55 2902.07C4825.63 2918.95 4823.67 2939.75 4823.67 2964.47V3122.23H4785.41V2799.06H4823.67V2847.33C4844.86 2811.22 4878.02 2793.17 4923.15 2793.17H4933.75ZM5116.96 3128.12C5087.53 3128.12 5061.04 3120.85 5037.49 3106.33C5013.95 3091.81 4995.5 3071.8 4982.16 3046.29C4968.82 3020.39 4962.14 2991.35 4962.14 2959.17C4962.14 2927.78 4968.82 2899.52 4982.16 2874.4C4995.5 2849.29 5013.95 2829.47 5037.49 2814.95C5061.04 2800.43 5087.53 2793.17 5116.96 2793.17C5146.39 2793.17 5172.88 2800.43 5196.43 2814.95C5220.37 2829.47 5239.01 2849.29 5252.35 2874.4C5266.09 2899.52 5272.95 2927.78 5272.95 2959.17C5272.95 2990.96 5266.28 3019.8 5252.94 3045.7C5239.6 3071.21 5220.96 3091.42 5197.02 3106.33C5173.47 3120.85 5146.79 3128.12 5116.96 3128.12ZM5116.96 3093.97C5138.94 3093.97 5158.95 3088.09 5177 3076.31C5195.06 3064.54 5209.18 3048.45 5219.39 3028.04C5229.59 3007.64 5234.69 2984.68 5234.69 2959.17C5234.69 2934.45 5229.59 2912.08 5219.39 2892.06C5209.18 2872.05 5195.06 2856.35 5177 2844.97C5159.34 2833.2 5139.33 2827.31 5116.96 2827.31C5094.98 2827.31 5074.97 2833 5056.92 2844.38C5039.26 2855.76 5025.33 2871.66 5015.12 2892.06C5005.31 2912.08 5000.41 2934.45 5000.41 2959.17C5000.41 2984.68 5005.51 3007.83 5015.71 3028.63C5025.92 3049.04 5039.85 3065.13 5057.51 3076.9C5075.17 3088.28 5094.98 3093.97 5116.96 3093.97ZM5692.83 3122.23H5645.73L5476.2 2673.08H5518L5669.28 3081.61L5820.56 2673.08H5862.36L5692.83 3122.23ZM5952.7 3122.23H5914.44V2799.06H5952.7V3122.23ZM5933.87 2724.3C5926.02 2724.3 5919.15 2721.55 5913.26 2716.06C5907.77 2710.17 5905.02 2703.3 5905.02 2695.45C5905.02 2687.6 5907.77 2680.93 5913.26 2675.44C5919.15 2669.95 5926.02 2667.2 5933.87 2667.2C5941.72 2667.2 5948.39 2669.95 5953.88 2675.44C5959.77 2680.93 5962.71 2687.6 5962.71 2695.45C5962.71 2703.3 5959.77 2710.17 5953.88 2716.06C5948.39 2721.55 5941.72 2724.3 5933.87 2724.3ZM6185.21 2793.17V2830.84H6170.5C6139.5 2830.84 6116.54 2840.26 6101.62 2859.1C6092.21 2870.87 6085.34 2885.2 6081.02 2902.07C6077.1 2918.95 6075.14 2939.75 6075.14 2964.47V3122.23H6036.87V2799.06H6075.14V2847.33C6096.33 2811.22 6129.49 2793.17 6174.62 2793.17H6185.21ZM6328.29 3128.12C6295.72 3128.12 6269.23 3120.07 6248.82 3103.98C6228.41 3087.89 6218.21 3065.33 6218.21 3036.28C6218.21 3007.64 6229.79 2985.07 6252.94 2968.59C6263.14 2961.53 6274.33 2956.03 6286.49 2952.11C6299.05 2947.79 6312.98 2944.06 6328.29 2940.92L6443.67 2917.97C6442.49 2888.14 6435.23 2865.77 6421.89 2850.86C6407.76 2835.16 6385.78 2827.31 6355.96 2827.31C6333.98 2827.31 6314.75 2833.4 6298.27 2845.56C6282.18 2857.73 6272.17 2873.62 6268.25 2893.24H6229.98C6234.69 2862.24 6248.82 2837.91 6272.37 2820.25C6296.31 2802.2 6324.36 2793.17 6356.54 2793.17C6396.97 2793.17 6427.77 2804.35 6448.96 2826.72C6470.94 2849.88 6481.93 2884.02 6481.93 2929.15V3122.23H6443.67V3061.6C6433.07 3081.61 6418.16 3097.31 6398.93 3108.69C6377.34 3121.64 6353.8 3128.12 6328.29 3128.12ZM6325.35 3093.97C6344.97 3093.97 6363.41 3089.66 6380.68 3081.02C6403.44 3070.03 6419.53 3053.55 6428.95 3031.58C6438.76 3009.21 6443.67 2982.13 6443.67 2950.34L6328.88 2974.48C6303.76 2979.97 6285.71 2987.23 6274.72 2996.26C6262.56 3006.46 6256.47 3019.8 6256.47 3036.28C6256.47 3054.34 6262.95 3068.46 6275.9 3078.67C6288.85 3088.87 6305.33 3093.97 6325.35 3093.97ZM6627.65 3122.23C6604.49 3122.23 6587.42 3116.73 6576.44 3105.75C6565.84 3094.76 6560.54 3075.14 6560.54 3046.88V2673.08H6598.8V3040.99C6598.8 3058.26 6600.96 3070.43 6605.28 3077.49C6609.99 3084.55 6620.19 3088.09 6635.89 3088.09H6657.08V3122.23H6627.65Z" fill="white"/>
<path d="M313.208 1592.82H112.312V385.859H452.411L726.072 1349.21L999.733 385.859H1339.83V1592.82H1138.94V528.226L824.147 1592.82H627.997L313.208 536.136V1592.82ZM2364.79 1592.82H1565.95V385.859H2364.79V566.191H1766.85V898.381H2298.35V1077.13H1766.85V1412.48H2364.79V1592.82ZM2029.43 298.857H1879.16L2062.65 63.1606H2263.55L2029.43 298.857ZM3032.55 1592.82H2831.66V566.191H2452.01V385.859H3415.36V566.191H3032.55V1592.82ZM4026.92 1613.38C3900.37 1613.38 3793.86 1585.43 3707.39 1529.54C3620.91 1472.59 3556.06 1397.19 3512.82 1303.34C3470.64 1208.42 3449.55 1103.49 3449.55 988.546C3449.55 873.598 3470.64 769.196 3512.82 675.339C3556.06 581.482 3620.91 506.608 3707.39 450.715C3793.86 394.823 3900.37 366.877 4026.92 366.877C4152.42 366.877 4258.4 394.823 4344.88 450.715C4432.41 506.608 4497.26 582.009 4539.44 676.921C4582.68 770.778 4604.3 874.653 4604.3 988.546C4604.3 1103.49 4582.68 1208.42 4539.44 1303.34C4497.26 1397.19 4432.41 1472.59 4344.88 1529.54C4258.4 1585.43 4152.42 1613.38 4026.92 1613.38ZM4026.92 1433.05C4143.98 1433.05 4234.67 1392.45 4299 1311.25C4364.39 1230.04 4397.08 1122.48 4397.08 988.546C4397.08 855.671 4364.39 748.632 4299 667.43C4234.67 586.228 4143.98 545.627 4026.92 545.627C3949.94 545.627 3883.5 564.609 3827.61 602.574C3771.72 639.484 3729.01 691.685 3699.48 759.177C3671.01 825.615 3656.77 902.072 3656.77 988.546C3656.77 1076.08 3671.01 1153.59 3699.48 1221.08C3729.01 1287.52 3771.72 1339.72 3827.61 1377.68C3883.5 1414.59 3949.94 1433.05 4026.92 1433.05ZM4786.82 1592.82V385.859H5133.25C5335.72 385.859 5490.75 438.061 5598.31 542.463C5705.88 646.866 5759.66 796.087 5759.66 990.128C5759.66 1183.11 5705.35 1331.81 5596.73 1436.21C5489.16 1540.61 5334.14 1592.82 5131.66 1592.82H4786.82ZM5130.08 1412.48C5264.01 1412.48 5368.94 1380.85 5444.87 1317.57C5520.8 1253.24 5558.77 1144.1 5558.77 990.128C5558.77 844.597 5520.8 737.559 5444.87 669.011C5370 600.464 5265.07 566.191 5130.08 566.191H4987.72V1412.48H5130.08ZM6475.4 1613.38C6348.85 1613.38 6242.34 1585.43 6155.87 1529.54C6069.39 1472.59 6004.54 1397.19 5961.3 1303.34C5919.12 1208.42 5898.02 1103.49 5898.02 988.546C5898.02 873.598 5919.12 769.196 5961.3 675.339C6004.54 581.482 6069.39 506.608 6155.87 450.715C6242.34 394.823 6348.85 366.877 6475.4 366.877C6600.9 366.877 6706.88 394.823 6793.35 450.715C6880.88 506.608 6945.74 582.009 6987.92 676.921C7031.16 770.778 7052.78 874.653 7052.78 988.546C7052.78 1103.49 7031.16 1208.42 6987.92 1303.34C6945.74 1397.19 6880.88 1472.59 6793.35 1529.54C6706.88 1585.43 6600.9 1613.38 6475.4 1613.38ZM6475.4 1433.05C6592.46 1433.05 6683.15 1392.45 6747.48 1311.25C6812.86 1230.04 6845.56 1122.48 6845.56 988.546C6845.56 855.671 6812.86 748.632 6747.48 667.43C6683.15 586.228 6592.46 545.627 6475.4 545.627C6398.42 545.627 6331.98 564.609 6276.09 602.574C6220.2 639.484 6177.49 691.685 6147.96 759.177C6119.48 825.615 6105.25 902.072 6105.25 988.546C6105.25 1076.08 6119.48 1153.59 6147.96 1221.08C6177.49 1287.52 6220.2 1339.72 6276.09 1377.68C6331.98 1414.59 6398.42 1433.05 6475.4 1433.05Z" fill="white"/>
<rect x="7532" width="2102.86" height="1978.63" rx="319.608" fill="#D5FF3D"/>
<path d="M7863.76 1450.12V528.041H8228.73C8341.52 528.041 8422.89 553.017 8472.84 602.967C8510.71 640.833 8529.64 692.798 8529.64 758.862C8529.64 812.036 8517.55 857.153 8493.39 894.213C8470.02 930.468 8436.59 954.234 8393.08 965.514C8451.89 975.182 8497.01 998.948 8528.43 1036.81C8560.66 1073.87 8576.77 1122.21 8576.77 1181.83C8576.77 1223.73 8569.12 1261.59 8553.81 1295.43C8539.31 1329.27 8519.57 1356.66 8494.59 1377.61C8459.14 1405.81 8418.46 1425.14 8372.54 1435.62C8327.42 1445.28 8284.72 1450.12 8244.44 1450.12H7863.76ZM8217.85 911.132C8262.16 911.132 8296 901.464 8319.36 882.128C8342.73 861.987 8354.41 833.386 8354.41 796.325C8354.41 760.071 8343.53 733.484 8321.78 716.565C8308.89 705.286 8291.57 697.229 8269.81 692.395C8248.87 686.756 8222.28 683.936 8190.05 683.936H8037.79V911.132H8217.85ZM8222.68 1294.22C8253.3 1294.22 8280.69 1291.81 8304.86 1286.97C8329.84 1282.14 8350.78 1272.47 8367.7 1257.97C8390.26 1239.44 8401.54 1209.63 8401.54 1168.54C8401.54 1121.01 8387.04 1089.99 8358.03 1075.49C8329.03 1060.18 8290.36 1052.52 8242.02 1052.52H8037.79V1294.22H8222.68Z" fill="black"/>
<path d="M8888.8 1449.6H9024.21C9036.69 1449.6 9047.82 1441.71 9051.93 1429.92L9268.09 810.638C9290.85 738.34 9305.62 774.352 9315.9 799.411C9317.23 802.649 9318.49 805.704 9319.67 808.319C9333.6 839.044 9390.38 820.096 9382.45 787.305L9310.28 534.975C9305.09 513.485 9278.9 505.23 9262.32 519.853L9051.55 688.907C9025.26 712.083 9055.72 769.282 9086.28 752.136C9088.88 750.679 9091.86 748.875 9095.05 746.94C9120.76 731.369 9160.46 707.318 9128.14 787.305L8995.15 1165.64C8985.88 1192 8948.51 1191.74 8939.61 1165.25L8732.14 547.543C8728.12 535.585 8716.92 527.529 8704.3 527.529H8584.42C8564.16 527.529 8549.99 547.553 8556.73 566.655L8861.11 1430C8865.25 1441.75 8876.34 1449.6 8888.8 1449.6Z" fill="black"/>
</svg>
